<svg width="48" height="48" viewBox="0 0 48 48" fill="none" xmlns="http://www.w3.org/2000/svg">
<rect width="48" height="48" rx="24" fill="#EEF5E9"/>
<g clip-path="url(#clip0)">
<path d="M19.3888 14.0584H32.2034V34.9415H19.3888V14.0584Z" fill="#6CD73E"/>
<path d="M20.1112 24.2817C20.125 24.3947 20.1318 24.5076 20.1392 24.6208C20.176 24.6506 20.3034 24.7803 20.519 25.061C20.7345 25.3416 21.1068 24.885 21.266 24.6216L21.266 24.6216C21.2758 24.5087 21.2855 24.3958 21.3009 24.2828C21.3163 24.1699 21.3346 24.057 21.3466 23.944C21.3586 23.8311 21.3626 23.7182 21.362 23.6052C21.3615 23.4923 21.3495 23.3792 21.3203 23.2662C21.2981 23.1525 21.2553 23.0394 21.1923 22.9279C21.1192 22.8147 21.0552 22.7016 20.8906 22.5884C20.8735 22.5767 20.8482 22.567 20.8175 22.5604C20.7735 22.551 20.7216 22.5487 20.6731 22.5539C20.6245 22.559 20.5834 22.5713 20.5586 22.588C20.3918 22.7007 20.3267 22.8136 20.2495 22.9264C20.1839 23.038 20.1384 23.1512 20.1135 23.2651C20.0815 23.3781 20.0672 23.491 20.0644 23.6039C20.0615 23.7169 20.0632 23.8298 20.073 23.9427C20.0827 24.0557 20.0975 24.1688 20.1112 24.2817Z" fill="#373B42"/>
<path d="M31.6326 13.2862C31.7188 13.3412 31.791 13.4147 31.8437 13.5011C31.8964 13.5876 31.9282 13.6847 31.9366 13.785C31.9366 13.9539 31.9859 14.1148 31.9942 14.2837C31.9942 14.6136 31.9942 14.9514 31.9942 15.2812C31.9942 15.9489 32.0352 16.6166 32.101 17.2843C32.1926 17.9459 32.2475 18.6119 32.2653 19.2793C32.2748 19.9493 32.1651 33.7681 32.0681 34.4314V34.4958C32.0457 34.6362 31.9747 34.7647 31.867 34.8599C31.7593 34.9551 31.6214 35.0112 31.4765 35.0187C29.2253 35.1233 26.9822 35.1957 24.7309 35.2359L17.9853 35.3646H17.936C17.8173 35.3667 17.6993 35.3459 17.5888 35.3034C17.4783 35.2609 17.3775 35.1975 17.292 35.1168C17.2066 35.0362 17.1382 34.9398 17.0908 34.8332C17.0434 34.7267 17.0179 34.612 17.0157 34.4958V34.4314C17.0815 33.3615 17.2622 17.5335 17.3691 16.4556L17.5662 14.8467L17.6648 14.0423L17.7141 13.64C17.7166 13.5598 17.7388 13.4814 17.7789 13.4114C17.8189 13.3413 17.8756 13.2818 17.9442 13.2378C17.9731 13.2181 18.0075 13.2075 18.0428 13.2075C18.078 13.2075 18.1125 13.2181 18.1414 13.2378C18.2086 13.2832 18.2643 13.3431 18.3041 13.4128C18.344 13.4825 18.367 13.5603 18.3714 13.64L18.4207 14.0423L18.5193 14.8467L18.7083 16.4556C18.8233 17.5255 18.8644 33.3535 18.9302 34.4314L17.9771 33.4903L24.7227 33.619C26.974 33.6592 29.217 33.7396 31.4683 33.8442L30.8685 34.4314C30.7798 33.7673 30.8016 19.9491 30.8028 19.2793C30.807 18.6126 30.8481 17.9466 30.926 17.2843C30.9918 16.6166 31.0328 15.9489 31.0328 15.2812C31.0328 14.9514 31.0328 14.6136 31.0739 14.2837C31.0739 14.1148 31.115 13.9539 31.1314 13.785C31.1416 13.6851 31.1741 13.5886 31.2267 13.5024C31.2792 13.4163 31.3505 13.3424 31.4355 13.2862C31.4626 13.2625 31.4977 13.2494 31.534 13.2494C31.5704 13.2494 31.6055 13.2625 31.6326 13.2862Z" fill="#373B42"/>
<path d="M31.9978 14.1629H32.0101C32.0066 14.1679 32.0023 14.1689 31.9978 14.1629H25.2074C22.6932 14.1629 20.962 14.2272 18.4396 14.372C18.358 14.3775 18.2761 14.367 18.1987 14.3411C18.1213 14.3152 18.0499 14.2745 17.9887 14.2213C17.9275 14.1682 17.8778 14.1036 17.8423 14.0314C17.8069 13.9592 17.7865 13.8809 17.7823 13.8009V13.7607L17.8423 13.3584L18.4725 13.1091C20.847 13.2619 22.4796 13.2941 24.8623 13.3182L31.2542 13.3584C31.4761 13.3532 31.929 13.4248 31.965 13.7529C31.965 14.0447 31.9828 14.1428 31.9978 14.1629Z" fill="#373B42"/>
<path d="M33.0181 35.6414H33.1159C33.3129 35.5377 33.9578 35.8076 34.3128 35.6774L35.0511 35.0115C35.0511 35.0115 34.805 34.5675 34.3128 34.3456C33.6995 34.1788 33.1587 34.1732 33.0346 34.1788H31.3472H29.0437H24.4367H22.1324C21.7484 34.1788 21.3645 34.1838 20.9806 34.1788C20.5967 34.1738 20.2128 34.1454 19.8289 34.122C19.445 34.0987 19.0611 34.0786 18.6771 34.0427C18.4852 34.0252 18.2923 34.011 18.1004 34.001C17.9084 33.9949 17.7165 33.9918 17.5245 33.9918C17.332 33.9924 17.1396 34.0038 16.9486 34.026C16.7567 34.0502 16.5647 34.087 16.3737 34.1287C16.1733 34.1752 15.9799 34.2439 15.7978 34.3332C15.5822 34.4224 15.387 34.5482 15.2229 34.7039C15.155 34.7694 15.1172 34.8562 15.1172 34.9464C15.1172 35.0366 15.155 35.1233 15.2229 35.1889C15.3877 35.344 15.5835 35.469 15.7996 35.557C15.9819 35.6453 16.1753 35.7129 16.3755 35.7582C16.5684 35.7991 16.7603 35.835 16.9523 35.8584C17.1433 35.8798 17.3357 35.8904 17.5282 35.8901C17.7201 35.891 17.9121 35.8885 18.104 35.8776C18.296 35.8667 18.4879 35.8517 18.6799 35.8342C19.0629 35.7975 19.4468 35.7766 19.8307 35.7507C20.2146 35.7248 20.5985 35.6948 20.9824 35.6881C21.3664 35.6814 21.7503 35.6814 22.1342 35.6814L24.4377 35.6722L29.0446 35.6547L31.3481 35.6455L32.4998 35.6414H32.7878H33.0181Z" fill="#373B42"/>
<path d="M14.1936 29.3736H21.7306V35.8339H14.1936V29.3736Z" fill="#6CD73E"/>
<path fill-rule="evenodd" clip-rule="evenodd" d="M13.8408 32.1257C13.8585 32.1619 13.8688 32.2012 13.871 32.2413L13.8998 32.4765L13.9575 32.9468L14.068 33.8874C14.116 34.3338 14.1615 34.7802 14.1976 35.2283L17.6227 35.2937C18.8084 35.3149 19.9903 35.3551 21.1753 35.4076C21.1506 35.1384 21.1385 34.8681 21.139 34.5976C21.1415 34.2078 21.1655 33.8185 21.2111 33.4312C21.2421 33.116 21.2637 32.8008 21.2709 32.4857C21.2532 32.4495 21.2429 32.4102 21.2407 32.37L21.2119 32.1349L21.1542 31.6645L21.0438 30.7239C20.9958 30.2775 20.9502 29.8311 20.9141 29.383L17.489 29.3177C16.3033 29.2965 15.1214 29.2562 13.9365 29.2037C13.9611 29.473 13.9732 29.7433 13.9727 30.0137C13.9702 30.4035 13.9462 30.7929 13.9006 31.1801C13.8696 31.4953 13.848 31.8105 13.8408 32.1257ZM21.7627 31.2466C21.7845 31.2899 21.7979 31.337 21.8019 31.3854C21.8019 31.4391 21.8105 31.4915 21.819 31.544C21.8262 31.5879 21.8334 31.6319 21.8356 31.677V32.2602C21.8356 32.6505 21.8596 33.0409 21.898 33.4312C21.9516 33.818 21.9837 34.2074 21.9941 34.5976C21.9996 34.9893 21.9739 35.3809 21.9172 35.7687V35.8063C21.9041 35.8884 21.8626 35.9635 21.7996 36.0192C21.7367 36.0749 21.6561 36.1076 21.5714 36.112C20.2551 36.1732 18.9437 36.2155 17.6275 36.239L13.6837 36.3143H13.6548C13.5854 36.3155 13.5165 36.3034 13.4519 36.2785C13.3873 36.2537 13.3283 36.2166 13.2784 36.1694C13.2284 36.1222 13.1884 36.0659 13.1607 36.0036C13.133 35.9413 13.1181 35.8743 13.1168 35.8063V35.7687C13.1493 35.24 13.2024 34.7112 13.2557 34.1797C13.2655 34.0824 13.2753 33.985 13.285 33.8874L13.349 33.3648C13.3272 33.3214 13.3138 33.2743 13.3098 33.226C13.3098 33.1722 13.3012 33.1199 13.2927 33.0674C13.2855 33.0235 13.2783 32.9794 13.2762 32.9344L13.2762 32.3512C13.2762 31.9608 13.2521 31.5705 13.2137 31.1801C13.1601 30.7933 13.1281 30.404 13.1176 30.0137C13.1121 29.622 13.1378 29.2305 13.1945 28.8427L13.1945 28.805C13.2076 28.723 13.2491 28.6478 13.3121 28.5922C13.375 28.5365 13.4556 28.5037 13.5404 28.4993C14.8566 28.4382 16.168 28.3959 17.4842 28.3723L21.4281 28.2971L21.4569 28.2971C21.5263 28.2959 21.5952 28.308 21.6598 28.3329C21.7244 28.3577 21.7834 28.3948 21.8334 28.4419C21.8833 28.4891 21.9233 28.5455 21.951 28.6078C21.9787 28.6701 21.9936 28.7371 21.9949 28.805V28.8427C21.9624 29.3714 21.9093 29.9001 21.856 30.4317C21.8462 30.529 21.8364 30.6264 21.8268 30.7239L21.7627 31.2466Z" fill="#373B42"/>
<path d="M18.4395 35.8902V30.6694L24.04 31.144L24.6095 35.8902H18.4395Z" fill="white"/>
<path fill-rule="evenodd" clip-rule="evenodd" d="M18.4131 33.1037C18.4266 33.1312 18.4344 33.161 18.4361 33.1916L18.458 33.3703L18.5018 33.7277L18.5857 34.4425C18.6222 34.7817 18.6568 35.1209 18.6843 35.4614L21.287 35.5111C22.1881 35.5272 23.0862 35.5578 23.9867 35.5977C23.968 35.393 23.9588 35.1877 23.9592 34.9821C23.961 34.6859 23.9793 34.39 24.0139 34.0958C24.0375 33.8564 24.0539 33.6171 24.0594 33.3777C24.0459 33.3502 24.0381 33.3204 24.0364 33.2898L24.0145 33.1111L23.9707 32.7537L23.8868 32.0389C23.8503 31.6997 23.8157 31.3605 23.7882 31.02L21.1854 30.9703C20.2844 30.9542 19.3863 30.9236 18.4858 30.8837C18.5045 31.0884 18.5137 31.2937 18.5133 31.4993C18.5115 31.7955 18.4932 32.0914 18.4586 32.3856C18.435 32.625 18.4186 32.8643 18.4131 33.1037ZM24.4331 32.4357C24.4497 32.4686 24.4598 32.5044 24.4629 32.5411C24.4629 32.5819 24.4694 32.6217 24.4759 32.6616C24.4813 32.695 24.4868 32.7285 24.4885 32.7627V33.2059C24.4885 33.5025 24.5067 33.7991 24.5359 34.0958C24.5766 34.3897 24.601 34.6856 24.6089 34.9821C24.6132 35.2798 24.5936 35.5774 24.5505 35.8721V35.9006C24.5406 35.963 24.509 36.0201 24.4612 36.0624C24.4133 36.1047 24.3521 36.1296 24.2877 36.133C23.2875 36.1794 22.2909 36.2116 21.2907 36.2295L18.2937 36.2866H18.2718C18.2191 36.2876 18.1667 36.2783 18.1176 36.2595C18.0685 36.2406 18.0237 36.2124 17.9857 36.1766C17.9477 36.1407 17.9174 36.0979 17.8963 36.0506C17.8752 36.0032 17.8639 35.9523 17.8629 35.9006V35.8721C17.8876 35.4703 17.928 35.0685 17.9685 34.6645C17.9759 34.5906 17.9834 34.5166 17.9907 34.4425L18.0393 34.0457C18.0228 34.0128 18.0127 33.977 18.0096 33.9403C18.0096 33.8995 18.0031 33.8597 17.9966 33.8198C17.9911 33.7864 17.9857 33.7529 17.984 33.7187L17.984 33.2756C17.984 32.9789 17.9658 32.6823 17.9366 32.3856C17.8959 32.0917 17.8715 31.7958 17.8636 31.4993C17.8593 31.2016 17.8789 30.9041 17.922 30.6094V30.5808C17.9319 30.5184 17.9635 30.4613 18.0113 30.419C18.0592 30.3767 18.1204 30.3518 18.1848 30.3484C19.185 30.302 20.1816 30.2698 21.1818 30.252L24.1788 30.1948L24.2007 30.1948C24.2534 30.1938 24.3058 30.2031 24.3549 30.2219C24.404 30.2408 24.4488 30.269 24.4868 30.3048C24.5248 30.3407 24.5551 30.3835 24.5762 30.4308C24.5973 30.4782 24.6086 30.5291 24.6095 30.5808V30.6094C24.5849 31.0111 24.5445 31.4129 24.504 31.8169C24.4965 31.8908 24.4891 31.9649 24.4818 32.0389L24.4331 32.4357Z" fill="#373B42"/>
</g>
<defs>
<clipPath id="clip0">
<rect width="23.7308" height="24.68" fill="white" transform="translate(12.2695 12.1599)"/>
</clipPath>
</defs>
</svg>
