<svg width="104" height="27" viewBox="0 0 104 27" fill="none" xmlns="http://www.w3.org/2000/svg">
<path d="M0.207031 14.2843C0.207031 21.2348 6.11546 26.6358 12.9863 26.6358C20.1775 26.6358 26.0051 20.8342 26.0051 13.7497C26.0051 9.60561 24.0006 5.97014 21.0326 3.53726L18.8676 7.27954C20.659 8.80427 21.8882 11.1563 21.8882 13.8028C21.8882 18.6155 17.9046 22.5719 12.9863 22.5719C8.0934 22.5719 4.1098 18.6155 4.1098 13.6695C4.1098 13.0812 4.16292 12.4934 4.2703 11.9317L0.207031 14.2843ZM16.9959 1.34512C15.7667 0.890761 14.6698 0.703705 13.574 0.703705C12.745 0.703705 12.0233 0.810512 11.4887 0.916741L8.70826 5.72939C9.72436 5.14109 11.0343 4.82067 12.4517 4.82067C13.2802 4.82067 14.029 4.92748 14.8037 5.14109L16.9959 1.34512Z" fill="black"/>
<path d="M34.5887 24.6356C33.266 24.6356 32.5235 23.8256 31.8186 22.9232C31.2101 22.1126 30.9053 21.5843 30.9053 20.9216C30.9053 20.3263 31.071 19.6936 31.3573 18.8016C32.2164 16.1666 34.438 12.0324 36.3501 9.00945C35.599 8.67228 35.1256 8.08052 34.9131 7.55052L34.901 7.51762C34.8433 7.34442 34.6903 6.88486 34.9397 6.48015C35.1752 6.09911 35.6157 5.99634 35.9269 5.95189C36.7848 5.8445 37.607 5.52986 38.5815 5.08993C39.6403 4.61536 40.5057 4.33997 41.4774 4.16851C41.7811 4.11943 42.0721 4.09518 42.3509 4.09518C44.1585 4.09518 45.6382 5.09166 46.8743 7.14235C47.4511 8.10303 47.656 9.49498 47.656 10.477C47.656 15.9634 42.3267 22.2188 35.7768 24.4225C35.3357 24.5697 34.9697 24.6356 34.5887 24.6356ZM40.2575 8.72944C40.2379 9.6168 39.9071 10.6849 39.3164 11.7379C36.8599 15.8647 35.2203 18.8351 34.6164 20.9348C34.5962 21.0064 34.5783 21.0711 34.5638 21.1294C38.6433 19.3841 44.1643 14.4225 44.1643 9.3876C44.1643 8.7866 44.0719 8.33108 43.8895 8.03491C43.6678 7.68042 43.3647 7.65214 43.2769 7.65214C42.7435 7.65214 41.6789 8.11516 40.9018 8.45347C40.6766 8.55162 40.459 8.64573 40.2575 8.72944Z" fill="black"/>
<path d="M48.1654 24.6237C47.7405 24.6237 47.3462 24.3622 47.136 23.9419L47.065 23.8033C46.8982 23.4823 46.71 23.118 46.71 22.5557C46.71 22.0962 46.8018 21.3271 47.24 20.2695C47.3854 19.9052 47.5471 19.5114 47.7705 19.0501C47.3433 18.6518 47.1378 18.284 47.076 18.161L47.0592 18.1253C46.9709 17.9157 46.7642 17.4244 47.0373 17.0127C47.2076 16.757 47.494 16.6271 47.8889 16.6271C48.0234 16.6271 48.1787 16.6409 48.3652 16.6692C48.6261 16.7067 48.8161 16.7321 49.0378 16.7541C51.4354 12.644 55.5224 7.03583 58.6059 4.42224C59.0487 4.05968 59.4309 3.89398 59.8172 3.89398C60.2796 3.89398 60.6797 4.12838 61.0417 4.60988C61.3633 5.02787 61.5734 5.4014 61.8124 5.9822C62.0105 6.45734 62.0994 6.85513 62.0994 7.2685C62.0994 7.75923 62.0064 8.24419 61.8228 8.7101C61.4348 9.92596 60.4973 13.0361 59.8074 16.6975C60.5394 17.1634 60.8425 17.8106 61.04 18.4018C61.1658 18.8042 61.1358 19.1275 60.9539 19.374C60.835 19.5357 60.6 19.7285 60.1555 19.7285C60.0417 19.7285 59.9159 19.7164 59.771 19.6927L59.3282 19.6165C59.159 21.1106 59.0574 22.3536 59.0112 23.4881C59.0118 24.1451 58.5857 24.6029 57.9518 24.6029C57.7307 24.6029 57.4894 24.5458 57.2353 24.4326C56.1782 23.9049 55.6396 22.7612 55.6096 21.0223C55.6096 20.624 55.6096 20.1644 55.6402 19.6483L54.1449 19.7978C53.0918 19.9029 52.0959 20.0027 51.283 20.0079C50.9158 20.6696 50.5764 21.3485 50.2467 22.0084C49.9165 22.67 49.6036 23.2959 49.2779 23.8766C48.9067 24.5273 48.4218 24.6237 48.1654 24.6237ZM56.9571 11.714C55.7389 13.2907 54.5571 14.9309 53.4902 16.5295C53.6611 16.5076 53.8291 16.4839 53.9936 16.4585C54.3227 16.4192 54.5969 16.3834 54.8521 16.3494C55.2845 16.2928 55.6742 16.2408 56.0807 16.2085C56.3197 14.6497 56.6205 13.1128 56.9571 11.714Z" fill="black"/>
<path d="M64.5022 24.6958C64.0594 24.6958 63.7257 24.3852 63.5104 24.145C63.0549 23.6803 62.8037 22.9667 62.8037 22.1324C62.8037 21.5955 62.9584 20.7849 63.1975 20.0673C64.7337 16.0485 68.8628 8.29836 71.3875 4.68714C71.7287 4.19698 72.1167 3.94757 72.5387 3.94757C72.8574 3.94757 73.3135 4.09248 73.6749 4.7824C73.896 5.22579 74.0155 5.75058 74.0155 6.27018C74.0155 7.27821 73.5692 8.66323 72.791 10.0702L72.5468 10.502C70.6618 13.8373 67.5067 19.4201 65.5178 23.8598C65.2857 24.41 64.9422 24.6958 64.5022 24.6958Z" fill="black"/>
<path d="M73.5365 24.7937C72.9661 24.7937 72.5285 24.5471 72.1578 24.0177L72.1301 23.9785C71.7242 23.4104 71.4027 22.9462 71.2681 22.5773C70.9951 21.8764 71.0199 21.2402 71.3599 20.3205C72.8789 16.4593 77.8769 7.41362 79.7648 4.85604C80.0811 4.42073 80.4368 4.19846 80.8172 4.19846C81.2462 4.19846 81.6157 4.47211 81.9153 5.01134C82.1405 5.46051 82.2629 6.01013 82.2629 6.54185C82.2629 7.51985 81.8801 8.71031 81.1556 9.98449C80.5309 11.1265 79.9397 12.1951 79.3814 13.2043C77.8336 16.0026 76.5658 18.294 75.4388 20.5901C76.7182 20.3378 77.7655 20.2246 78.348 20.1762C78.5062 20.1646 78.6517 20.1594 78.7914 20.1594C80.7116 20.1594 81.5326 21.1565 81.8836 21.9924C82.0897 22.4878 81.9771 22.8244 81.8466 23.0195C81.5366 23.4848 80.9281 23.4848 80.7283 23.4848L80.6429 23.4837C79.3612 23.4837 76.5282 24.1095 74.492 24.6453C74.1692 24.7244 73.839 24.7937 73.5365 24.7937Z" fill="black"/>
<path d="M86.0443 24.9454C85.7608 24.9454 85.4848 24.8259 85.2019 24.5806C84.6552 24.1181 84.2695 23.1719 84.2695 22.2834C84.2695 21.728 84.3515 21.1564 84.5057 20.6316C84.8607 19.5653 85.5379 17.9822 86.33 16.3588C86.3814 13.4963 86.5621 8.39328 87.1874 5.36228C87.3837 4.42007 87.8831 4.22262 88.2681 4.22262C88.4945 4.22262 88.7277 4.29421 89.0014 4.44836C89.8795 4.99683 90.7674 6.37666 90.6976 8.64904C90.6664 9.51735 90.5861 10.2748 90.5018 11.0767C90.4626 11.4462 90.4233 11.8221 90.3864 12.225C92.1178 10.7378 94.5761 9.13112 96.7965 7.6797C98.7335 6.41418 100.562 5.21853 101.502 4.36465C101.851 4.03441 102.211 3.86295 102.563 3.86295C103.052 3.86295 103.438 4.19203 103.57 4.72202C103.735 5.4281 103.869 7.29173 101.594 9.5289C99.8419 11.1899 97.5979 12.5888 95.4277 13.9409C93.2286 15.3115 91.1496 16.607 89.8085 18.0267C88.5089 20.5952 87.6302 22.5478 87.1233 23.9946C86.8323 24.7821 86.3762 24.9454 86.0443 24.9454Z" fill="black"/>
</svg>
