<svg width="48" height="48" viewBox="0 0 48 48" fill="none" xmlns="http://www.w3.org/2000/svg">
<rect width="48" height="48" rx="24" fill="#EEF5E9"/>
<path d="M32.7553 30.8026C31.8794 31.5392 31.0034 32.2757 30.0022 32.644C29.0011 33.135 27.7497 33.3805 26.6234 33.2578C24.2458 33.2578 21.9932 32.3985 20.2413 30.6799C18.6144 29.2068 17.4882 26.8744 17.363 24.542C17.363 22.0869 18.239 19.7545 19.8659 17.9132C21.4927 16.0718 23.8704 14.8442 26.3732 14.7215C28.876 14.5987 31.3788 15.458 33.2559 17.0539C35.133 18.6497 36.2593 20.9821 36.2593 23.3145C36.3844 25.6468 35.5084 27.9792 33.8816 29.5751C33.7565 29.6978 33.6313 29.6978 33.5062 29.5751C33.381 29.4523 33.381 29.3296 33.5062 29.3296C34.6324 27.4882 34.8827 25.5241 34.6324 23.56C34.257 21.7186 33.2559 20 31.7542 18.8952C28.7508 16.5628 24.2458 16.8084 21.6178 19.509C20.1161 20.7366 19.3653 22.5779 19.3653 24.4193C19.3653 26.2606 20.1161 28.2247 21.3675 29.5751C23.9955 32.5212 29.1263 32.8895 32.3799 30.3116C32.5051 30.1889 32.6302 30.1889 32.7553 30.3116C32.8805 30.5571 32.8805 30.6799 32.7553 30.8026Z" fill="#373B42"/>
<ellipse cx="27.8748" cy="25.1554" rx="6.88274" ry="6.75163" fill="#6CD73E"/>
<path d="M28.876 18.4039C28.6257 19.5088 28.1251 20.4908 27.7497 21.5956C27.2492 22.5777 26.8737 23.6825 26.3732 24.6645L25.6223 23.437C26.6234 23.437 27.6246 23.3142 28.6257 23.437H28.7508C29.2514 23.437 29.6268 23.8052 29.5017 24.2963C29.5017 24.419 29.5017 24.5418 29.3765 24.6645C28.2503 26.5059 26.9989 28.3473 25.372 30.0658C25.9977 27.8562 26.8737 25.8921 27.8749 23.928L28.6257 25.1556C27.6246 25.1556 26.6234 25.1556 25.6223 25.1556H25.4972C24.9966 25.1556 24.7463 24.7873 24.7463 24.2963C24.7463 24.1735 24.7463 24.0508 24.8715 23.928C25.4972 22.9459 26.1229 22.0867 26.7486 21.1046C27.3743 20.1225 28.1251 19.2632 28.876 18.4039Z" fill="#373B42"/>
<path d="M9.7294 20.0003C10.9808 19.8775 12.1071 19.7548 13.3585 19.632C13.9842 19.632 14.6099 19.3865 15.1104 19.5093C15.7362 19.632 16.3619 19.7548 16.8624 20.0003V20.123C16.2367 20.4913 15.611 20.6141 15.1104 20.6141C14.4847 20.8596 13.9842 20.6141 13.3585 20.6141C12.1071 20.4913 10.9808 20.3686 9.7294 20.123C9.7294 20.123 9.7294 20.123 9.7294 20.0003C9.7294 20.123 9.7294 20.123 9.7294 20.0003Z" fill="#373B42"/>
<path d="M9.7294 24.7869C10.9808 24.6642 12.1071 24.5414 13.3585 24.4187C13.9842 24.4187 14.6099 24.1732 15.1104 24.2959C15.7362 24.4187 16.3619 24.5414 16.8624 24.9097V25.0324C16.2367 25.4007 15.611 25.5235 15.1104 25.5235C14.4847 25.6462 13.859 25.4007 13.3585 25.4007C12.1071 25.278 10.9808 25.1552 9.7294 24.7869C9.7294 24.9097 9.7294 24.9097 9.7294 24.7869C9.7294 24.9097 9.7294 24.9097 9.7294 24.7869Z" fill="#373B42"/>
<path d="M9.7294 29.5747C10.9808 29.4519 12.1071 29.3291 13.3585 29.2064C13.9842 29.2064 14.6099 28.9609 15.1104 29.0836C15.7362 29.2064 16.3619 29.3291 16.8624 29.5747V29.6974C16.2367 30.0657 15.611 30.1884 15.1104 30.3112C14.4847 30.434 13.859 30.1884 13.3585 30.1884C12.1071 30.0657 10.9808 29.9429 9.7294 29.5747C9.7294 29.6974 9.7294 29.6974 9.7294 29.5747C9.7294 29.6974 9.7294 29.6974 9.7294 29.5747Z" fill="#373B42"/>
</svg>
